<svg xmlns="http://www.w3.org/2000/svg" width="1200" height="630" viewBox="0 0 1200 630">
  <defs>
    <linearGradient id="bg" x1="0%" y1="0%" x2="100%" y2="100%">
      <stop offset="0%" stop-color="#070a10"/>
      <stop offset="55%" stop-color="#0f1419"/>
      <stop offset="100%" stop-color="#121820"/>
    </linearGradient>
    <radialGradient id="glow1" cx="85%" cy="15%" r="45%">
      <stop offset="0%" stop-color="#f59e0b" stop-opacity="0.45"/>
      <stop offset="100%" stop-color="#f59e0b" stop-opacity="0"/>
    </radialGradient>
    <radialGradient id="glow2" cx="8%" cy="88%" r="40%">
      <stop offset="0%" stop-color="#863bff" stop-opacity="0.35"/>
      <stop offset="100%" stop-color="#863bff" stop-opacity="0"/>
    </radialGradient>
    <linearGradient id="brand" x1="0%" y1="0%" x2="100%" y2="0%">
      <stop offset="0%" stop-color="#f59e0b"/>
      <stop offset="100%" stop-color="#863bff"/>
    </linearGradient>
    <pattern id="grid" width="48" height="48" patternUnits="userSpaceOnUse">
      <path d="M 48 0 L 0 0 0 48" fill="none" stroke="#ffffff" stroke-opacity="0.04" stroke-width="1"/>
    </pattern>
    <filter id="cardShadow" x="-20%" y="-20%" width="140%" height="140%">
      <feDropShadow dx="0" dy="24" stdDeviation="32" flood-color="#000" flood-opacity="0.55"/>
    </filter>
  </defs>
  <rect width="1200" height="630" fill="url(#bg)"/>
  <rect width="1200" height="630" fill="url(#glow1)"/>
  <rect width="1200" height="630" fill="url(#glow2)"/>
  <rect width="1200" height="630" fill="url(#grid)"/>
  <rect x="72" y="72" width="1056" height="486" rx="28" fill="#121820" fill-opacity="0.55" stroke="#2a3548" stroke-width="1.5" filter="url(#cardShadow)"/>
  <path fill="url(#brand)" d="M108 118c-.66.85-2.02.37-2.02-.7V86.9a2.26 2.26 0 0 0-2.26-2.26H72.3c-.92 0-1.46-1.04-.92-1.79l7.48-10.47c1.07-1.5 0-3.58-1.84-3.58H63.2c-.92 0-1.46-1.04-.92-1.79L72.1 53.5c.21-.3.56-.47.92-.47h28.9c.92 0 1.46 1.04.92 1.79l-7.48 10.47c-1.07 1.5 0 3.58 1.84 3.58h11.38c.94 0 1.47 1.09.89 1.83L108 118z" opacity="0.95"/>
  <text x="168" y="98" fill="#e8edf4" font-family="Segoe UI, system-ui, sans-serif" font-size="28" font-weight="600" letter-spacing="-0.02em">ReactTeacher</text>
  <rect x="168" y="118" width="191" height="40" rx="20" fill="#f59e0b" fill-opacity="0.14" stroke="#f59e0b" stroke-opacity="0.45" stroke-width="1"/>
  <text x="192" y="145" fill="#f59e0b" font-family="Segoe UI, system-ui, sans-serif" font-size="18" font-weight="600" letter-spacing="0.06em">SYSTEM DESIGN</text>
  <text x="168" y="248" fill="#e8edf4" font-family="Segoe UI, system-ui, sans-serif" font-size="64" font-weight="700" letter-spacing="-0.03em">Search Autocomplete</text>
  <text x="168" y="312" fill="#8b9cb3" font-family="Segoe UI, system-ui, sans-serif" font-size="30" font-weight="400">Debounced API, keyboard navigation, caching</text>
  <text x="168" y="500" fill="#5b9fd4" font-family="ui-monospace, Consolas, monospace" font-size="22" font-weight="500">reactteacher.vercel.app</text>
  <g transform="translate(900 140)">
    <rect width="200" height="200" rx="36" fill="#1a2332" stroke="#2a3548" stroke-width="1.5"/>
    <rect width="200" height="200" rx="36" fill="url(#brand)" fill-opacity="0.12"/>
    <text x="100" y="128" text-anchor="middle" fill="url(#brand)" font-family="Segoe UI, system-ui, sans-serif" font-size="72" font-weight="700">⎇</text>
  </g>
  <circle cx="1040" cy="520" r="6" fill="#f59e0b"/>
  <circle cx="1068" cy="520" r="6" fill="#863bff"/>
  <circle cx="1096" cy="520" r="6" fill="#5b9fd4"/>
</svg>